PathFileType        4      (X/Y/Z)      C:\Users\pc\Desktop\IMUTRC\Sujet_07\Sujet_07_velo_60.trc         
DataRate	CameraRate	NumFrames	NumMarkers	Units	OrigDataRate	OrigDataStartFrame	OrigNumFrames
60.0	60.0	4	64	mm	60.0	585	935
Frame#	Time	pHipOrigin			pRightASI			pLeftASI			pRightCSI			pLeftCSI			pRightIschialTub			pLeftIschialTub			pSacrum			pL5SpinalProcess			pL3SpinalProcess			pT12SpinalProcess			pIJ			pT4SpinalProcess			pT8SpinalProcess			pPX			pC7SpinalProcess			pTopOfHead			pRightAuricularis			pLeftAuricularis			pBackOfHead			pRightAcromion			pLeftAcromion			pRightArmLatEpicondyle			pRightArmMedEpicondyle			pLeftArmLatEpicondyle			pLeftArmMedEpicondyle			pRightUlnarStyloid			pRightRadialStyloid			pRightOlecranon			pLeftUlnarStyloid			pLeftRadialStyloid			pLeftOlecranon			pRightTopOfHand			pRightPinky			pRightBallHand			pLeftTopOfHand			pLeftPinky			pLeftBallHand			pRightGreaterTrochanter			pRightKneeLatEpicondyle			pRightKneeMedEpicondyle			pRightPatella			pLeftGreaterTrochanter			pLeftKneeLatEpicondyle			pLeftKneeMedEpicondyle			pLeftPatella			pRightTibialTub			pRightLatMalleolus			pRightMedMalleolus			pLeftTibialTub			pLeftLatMalleolus			pLeftMedMalleolus			pRightHeelFoot			pRightFirstMetatarsal			pRightFifthMetatarsal			pRightPivotFoot			pRightHeelCenter			pRightToe			pLeftHeelFoot			pLeftFirstMetatarsal			pLeftFifthMetatarsal			pLeftPivotFoot			pLeftHeelCenter			pLeftToe			
		X1	Y1	Z1	X2	Y2	Z2	X3	Y3	Z3	X4	Y4	Z4	X5	Y5	Z5	X6	Y6	Z6	X7	Y7	Z7	X8	Y8	Z8	X9	Y9	Z9	X10	Y10	Z10	X11	Y11	Z11	X12	Y12	Z12	X13	Y13	Z13	X14	Y14	Z14	X15	Y15	Z15	X16	Y16	Z16	X17	Y17	Z17	X18	Y18	Z18	X19	Y19	Z19	X20	Y20	Z20	X21	Y21	Z21	X22	Y22	Z22	X23	Y23	Z23	X24	Y24	Z24	X25	Y25	Z25	X26	Y26	Z26	X27	Y27	Z27	X28	Y28	Z28	X29	Y29	Z29	X30	Y30	Z30	X31	Y31	Z31	X32	Y32	Z32	X33	Y33	Z33	X34	Y34	Z34	X35	Y35	Z35	X36	Y36	Z36	X37	Y37	Z37	X38	Y38	Z38	X39	Y39	Z39	X40	Y40	Z40	X41	Y41	Z41	X42	Y42	Z42	X43	Y43	Z43	X44	Y44	Z44	X45	Y45	Z45	X46	Y46	Z46	X47	Y47	Z47	X48	Y48	Z48	X49	Y49	Z49	X50	Y50	Z50	X51	Y51	Z51	X52	Y52	Z52	X53	Y53	Z53	X54	Y54	Z54	X55	Y55	Z55	X56	Y56	Z56	X57	Y57	Z57	X58	Y58	Z58	X59	Y59	Z59	X60	Y60	Z60	X61	Y61	Z61	X62	Y62	Z62	X63	Y63	Z63	X64	Y64	Z64	
585	9.733	0.0	1249.97763	7.653905517926474E-14	116.93292902627391	1334.25997	123.1599258486481	85.6172134495674	1309.75498	-158.24388369712014	94.73943393135721	1414.0126	93.28320695057451	69.01356161076106	1393.81454	-138.24789512112312	-68.63274304542374	1220.27461	69.27133801749356	-81.50927905909136	1210.17558	-46.544927381343754	-57.73367690002023	1295.57178	2.4232216986007855	16.395970760808446	1380.15115	-12.656054397133893	99.14392444638361	1468.88894	-33.30621440290642	176.88963472586846	1547.82474	-53.75759467750415	442.48091857115685	1533.79006	-102.09123234499079	344.3871173392182	1657.13188	-95.70294470371066	262.9505681377313	1615.10209	-75.83906389365258	333.85906548844764	1471.78499	-74.94306399345648	396.6930913805728	1682.67648	-105.80434928271559	664.551894700175	1709.18643	-158.65950588686576	583.9644005984919	1670.20121	-70.90965164809343	552.4896326173985	1688.7656	-211.09711434839744	553.5127668960654	1733.46866	-130.59183490201386	428.07325955600874	1617.77537	82.51732508737344	360.889260596255	1612.20605	-285.27591525867854	458.8099950067048	1330.39858	55.41841762796428	421.86224553150555	1329.21046	2.532376944335734	389.4344401654856	1316.06687	-266.99469658376313	356.2148344024872	1312.05696	-211.832911594842	528.1365556131534	1081.3387	28.905812343592242	577.8335657009931	1102.20507	23.471785887190986	415.3483320650867	1323.56688	34.01286602428029	442.00916259607914	1060.69509	-258.8486870273822	490.0576064023113	1078.21988	-276.7243729243946	348.86410130381205	1309.68072	-232.36844839505838	717.9250417963085	1051.56141	129.39125158278372	640.0900971702439	1026.16533	80.93767027943781	586.6815445844052	1062.62579	34.58233691682464	572.8077224487963	999.06131	-419.9032582491272	521.1797224656477	988.591	-340.7284791851488	492.5857498203659	1036.33861	-283.9250257732859	40.810886835689985	1237.20533	171.98721049864125	390.1493519710554	966.75927	126.81727984605931	388.2843534771255	967.87314	40.93847199358535	415.85775853345217	1007.37816	80.95239349835087	-6.659599589664623	1222.13105	-177.82203515263598	245.04824168752174	860.64521	-233.7425649082056	264.12975302326595	852.77391	-150.356852026916	291.9503972238675	887.00664	-194.83074128165435	439.60660056390384	929.85326	82.14499248068151	316.531510887285	539.03568	142.79226094668113	314.53874892693625	535.02577	77.33280590939576	280.0207283404554	801.38767	-200.60364865811107	-18.16146820913876	514.1594	-190.72205432172476	-2.8412907568067	507.92176	-127.25722005013498	269.8863932362306	457.20384	112.3461346433352	436.7212184611594	445.76818	84.76638088188463	431.7728546123355	450.81769	163.8818984823848	456.7789932921381	446.9563	124.72841578785327	310.4300143971809	459.65434	114.74642286974448	548.69146714762	439.97609	130.97720122081262	-93.45939592052164	474.72863	-142.876637820961	36.570913308476385	366.08981	-137.60023992947794	19.66452643019467	370.39675	-215.09989888387827	44.95601837369204	353.61454	-179.74748792923464	-60.549157879985046	452.15433	-151.31438219635643	111.90491475291333	292.50056	-197.68639796870997	
586	9.75	0.0	1249.97763	7.653905517926474E-14	117.8929450776461	1333.74017	122.68524927158984	84.24683186762196	1310.57181	-158.69209317143404	95.43955864298344	1413.64131	93.2586953784034	67.74194294073271	1394.55712	-138.12460697678088	-68.0267799010815	1219.90332	69.70693906397858	-81.87061144532237	1210.32409	-46.067581329971574	-57.746285327849115	1295.49752	3.187640136203965	16.17320076080845	1380.22541	-12.270205438731779	98.7381739206975	1469.03746	-33.19749387722034	176.37516367449626	1548.04751	-54.05462467750415	441.7417219892113	1534.08709	-103.63268630828007	343.56371314350383	1657.35465	-96.95004680156791	262.300195514188	1615.39912	-76.6432854658237	333.21863681841927	1472.08202	-75.91302899834362	395.84251479862735	1682.97351	-107.15288742705788	663.5408999738873	1709.33495	-161.2153516547514	583.3120737841214	1669.82992	-73.34416846246405	551.1173055048798	1689.58243	-213.17561406491086	552.7192082211499	1733.61717	-132.33617095827316	427.89561297895045	1618.14665	81.04283798462909	359.3286190094224	1611.98328	-286.4341847378796	458.3253608158775	1330.69561	54.62414866956217	421.2019289544473	1329.35897	1.8938988048806455	388.34118701625624	1316.06687	-267.62588658376313	355.1858922997428	1312.05696	-212.426971594842	527.3277190360951	1081.56147	28.52457839007725	577.0247291239348	1102.27933	23.09055193367605	414.76227048802843	1323.78966	33.24577445210917	441.20032601902085	1060.69509	-259.22992098089713	489.248774825253	1078.21988	-277.1056155381635	347.77084815458267	1309.60646	-232.99963839505838	717.0048202192502	1051.70993	129.20294210846978	639.2713079794165	1026.3881	80.72217475863886	585.899894053832	1062.77431	34.302535349540655	572.1546803509391	998.98706	-420.1087961561572	520.4623693213055	988.591	-340.9711470921786	491.8040856295386	1036.33861	-284.2048236803158	40.31364421703381	1234.97761	171.9573599778423	378.7844275304443	951.09092	126.60088640137903	377.41667165517055	952.79885	40.751929069704005	406.33326858670364	990.89298	81.11261400229839	-7.018271161835756	1223.54194	-177.94337776640498	256.6075234948152	871.18978	-237.87270829744446	276.09478535624555	863.24422	-154.595715941841	302.6338669333038	898.73934	-198.78057361952108	429.93626875172316	915.44729	81.96377850542795	317.0964393102267	521.13961	140.03159621550628	315.333731829079	517.50099	74.6192151317359	289.73957199363235	811.70947	-205.1104196562318	-16.46687558070829	533.16933	-190.686874852298	-0.3994994632350597	526.48615	-127.4766066320804	270.5627066591723	439.45628	109.39254543295931	437.3703508376161	428.09488	81.71135062502373	432.3848569887922	432.92162	160.89117927200888	457.39099566859477	429.13448	121.73769657747738	311.17064386660775	441.90678	111.82995499911456	549.3777295240766	422.15427	127.85785991746664	-92.52193725049332	496.33758	-142.42114386744603	33.8791659684197	383.46608	-137.09643677536138	16.769905657421972	387.92153	-214.54172863679165	41.62847102874821	370.471	-179.18204686320098	-60.41326496806797	472.64942	-150.80719562418534	106.41271686762197	307.05504	-197.08453218616296	
587	9.767	0.0	1249.97763	7.653905517926474E-14	118.90003508253326	1333.29462	121.98051821533049	82.87645028567654	1311.38864	-159.14030264574794	96.07536364787059	1413.27003	93.19704880623227	66.40602688447338	1395.22544	-138.03845249269264	-67.42082541699328	1219.45777	70.14253511046361	-82.20476644532236	1210.47261	-45.48880789236839	-57.721777415932024	1295.42327	3.8877511875761512	15.950425760808448	1380.29967	-11.884347820075622	98.3423723485264	1469.26023	-33.25452544450431	175.73207919040806	1548.34454	-54.42590967750415	440.8739083142959	1534.53263	-105.24840893182333	342.6760065615584	1657.72594	-98.23427389942512	261.52120945792865	1615.69615	-77.52176203799483	332.5510357621599	1472.45331	-76.9844300497158	394.93757112371185	1683.41906	-108.70429900411612	662.3641531546295	1709.63198	-163.78114637615187	582.5583095835198	1669.68141	-75.75149057009556	549.7820947321071	1690.47352	-215.3184211676552	551.7970324532644	1733.9142	-134.15477567478658	427.7922264018922	1618.51794	79.43972878891465	357.57504428313473	1611.83476	-287.7038442170807	457.72207080610326	1330.99264	53.589877618189966	420.59863028441896	1329.656	0.859622753508457	387.1836228205418	1316.06687	-268.2942065837631	354.1569501969985	1312.13122	-213.02103159484201	526.5659614125518	1081.78424	27.913281297107186	576.2629715003915	1102.50211	22.47925484070596	414.1961018180001	1324.16094	32.14718735425196	440.2900483954775	1060.76935	-259.58397388792713	488.2741861552247	1078.3684	-277.4967984451934	346.6775950053533	1309.68072	-233.6308283950584	716.0945562559609	1052.00696	128.8488855411858	638.4352903558732	1026.61087	80.23949975863889	585.1010014302886	1062.99708	33.755557963309634	571.2715887738808	998.9128	-420.361416676956	519.5792777442472	988.591	-341.2237676129776	490.85668300599525	1036.41287	-284.49457420111474	40.05640869134773	1233.12117	171.8088449778423	366.88513047117704	936.01664	126.41895348238485	365.7845590751043	938.02159	40.55275905773976	396.11861520235186	974.77909	81.13161264570105	-7.312636687521845	1224.95283	-178.02758171991997	268.4883432140258	882.77396	-241.81721168668338	288.41849426139623	874.75415	-158.71324590325102	313.5745771684261	911.5859	-202.58189961764185	419.4372037952003	901.41261	81.73281244209154	316.4242145888262	504.20888	137.92858358707582	314.8643892006485	500.79304	72.46184041033537	299.9828256516964	823.14514	-209.48589542681455	-12.909268756563407	552.40204	-191.2052506250707	4.0067384122820116	545.05055	-128.27673450271033	269.1360124536836	423.11962	107.1111722837299	435.73350005995627	410.05029	79.05139933633922	431.01518569033334	414.72851	158.21399955060835	455.89271093741996	410.79286	118.98626185607687	309.75389361463397	425.12457	109.38283841716915	547.7879476999318	402.8473	124.96786280983514	-89.52855356580352	517.94653	-142.40781649587652	33.27054201001758	401.21364	-136.93334915670522	15.894093559564752	405.66909	-214.36141758541947	40.42117206545894	387.69876	-179.02162371885876	-58.248610767466374	493.21876	-150.84360668044465	103.0679360899621	322.12933	-196.78626193907635	
588	9.783	0.0	1249.97763	7.653905517926474E-14	119.94425508742044	1332.84908	121.21147611258613	81.34031661076105	1312.20548	-159.59846107357683	96.84973469924277	1412.89874	93.04391880134511	65.04292478172901	1395.89375	-138.05373039483544	-66.750546226166	1219.08649	70.61525749669462	-82.60323749180739	1210.62112	-44.947155794511175	-57.734390843760906	1295.34901	4.652178285433359	15.727655760808448	1380.37392	-11.4984988616735	97.84513339012427	1469.40875	-33.28436230504922	175.16324104606582	1548.56731	-54.92581311022018	440.01604359289536	1535.05244	-107.02988364833676	341.76111893312793	1658.17148	-99.61994204376735	260.7793484016693	1616.06744	-78.46454099639693	331.92055604564655	1472.82459	-78.12014714757301	393.96831640231136	1683.8646	-110.29284058117442	661.251721042111	1709.92901	-166.30979743729836	581.7130619502021	1669.53289	-78.2973787242121	548.3182705266183	1691.43887	-217.53548327039954	550.8476792991478	1734.28549	-136.07480777753094	427.59735139211784	1618.88923	77.69806220696923	355.79428851036204	1611.68625	-289.0749447427668	457.05446108958995	1331.28967	52.51847156681779	420.0695952746446	1329.95303	-0.3032617305797241	385.9889286248274	1316.06687	-268.8982155372781	353.0265670477691	1312.20548	-213.58791054835694	525.7498453562926	1082.00702	27.099115771421122	575.5012175371022	1102.65062	21.867971407989938	413.5656307617408	1324.45797	31.011475256394757	439.27834338570324	1060.84361	-259.910849408726	487.26248114545035	1078.44265	-277.82367396599244	345.4829144698929	1309.68072	-234.23484100882737	715.1570975859327	1052.30399	128.3933915876709	637.5349703460989	1026.9079	79.71969975863885	584.2749327602603	1063.14559	33.10713087033964	570.3513671968225	998.83854	-420.54972615126997	518.5947451207039	988.591	-341.44920708729154	489.844977996221	1036.48713	-284.82144972191367	40.05640869134773	1231.71027	171.8088449778423	354.44151183973867	921.3879	126.43723318204681	353.340940443666	923.31859	40.57103875740175	385.17667838039694	958.88797	81.07368315453571	-7.67130459943894	1226.43799	-178.14891067343493	280.5349236864605	895.39775	-245.75176112240734	300.8336915992629	887.22942	-162.69221847843005	324.60677449651854	925.47206	-206.24464590902357	408.0994604010742	887.67496	81.61786004389629	314.3961809041364	487.94648	136.24322096841965	313.00209394867477	484.67914	70.78643040544823	310.6218908819316	835.69466	-213.8043569506214	-7.627232443443177	571.5605	-192.1856858868188	9.971662344058423	563.6892	-129.54886581583057	265.6805656197644	407.7483	105.37340176293097	432.01353322114994	391.70867	76.73219090362318	427.62671437721315	396.23838	155.91468402492228	452.27417648484465	392.0057	116.6398673768758	306.43701282719974	409.08494	107.55358446365418	544.0606977216703	382.27796	122.21570914469393	-84.67216068539929	539.55549	-142.9480357062524	34.552104633560894	419.25823	-137.22238073376352	16.972774090138003	423.71368	-214.5960870695077	41.066921023861056	405.22355	-179.24901372374592	-54.193761324665324	513.86237	-151.3321319324184	101.64052294073271	337.72342	-196.83866984121914	
